<mxfile host="Electron" agent="Mozilla/5.0 (Windows NT 10.0; Win64; x64) AppleWebKit/537.36 (KHTML, like Gecko) draw.io/24.7.8 Chrome/128.0.6613.36 Electron/32.0.1 Safari/537.36" version="24.7.8">
  <diagram name="Página-1" id="k_ndCavd6WrW332zNEvG">
    <mxGraphModel dx="830" dy="482" grid="1" gridSize="10" guides="1" tooltips="1" connect="1" arrows="1" fold="1" page="1" pageScale="1" pageWidth="827" pageHeight="1169" math="0" shadow="0">
      <root>
        <mxCell id="0" />
        <mxCell id="1" parent="0" />
        <mxCell id="nWFLq_mtjB2sc_mupm8x-5" value="" style="dashed=0;outlineConnect=0;html=1;align=center;labelPosition=center;verticalLabelPosition=bottom;verticalAlign=top;shape=mxgraph.weblogos.json" parent="1" vertex="1">
          <mxGeometry x="80" y="202.10000000000005" width="70" height="75.8" as="geometry" />
        </mxCell>
        <mxCell id="nWFLq_mtjB2sc_mupm8x-6" value="&lt;font face=&quot;Times New Roman&quot;&gt;Importação da Base de Dados&lt;/font&gt;" style="text;strokeColor=none;align=center;fillColor=none;html=1;verticalAlign=middle;whiteSpace=wrap;rounded=0;" parent="1" vertex="1">
          <mxGeometry x="150" y="215" width="130" height="20" as="geometry" />
        </mxCell>
        <mxCell id="nWFLq_mtjB2sc_mupm8x-15" value="" style="edgeStyle=orthogonalEdgeStyle;rounded=0;orthogonalLoop=1;jettySize=auto;html=1;" parent="1" source="nWFLq_mtjB2sc_mupm8x-8" target="nWFLq_mtjB2sc_mupm8x-14" edge="1">
          <mxGeometry relative="1" as="geometry" />
        </mxCell>
        <mxCell id="nWFLq_mtjB2sc_mupm8x-8" value="" style="shape=cylinder3;whiteSpace=wrap;html=1;boundedLbl=1;backgroundOutline=1;size=15;" parent="1" vertex="1">
          <mxGeometry x="280" y="200" width="60" height="80" as="geometry" />
        </mxCell>
        <mxCell id="nWFLq_mtjB2sc_mupm8x-10" value="" style="endArrow=classic;html=1;rounded=0;entryX=0;entryY=0.5;entryDx=0;entryDy=0;entryPerimeter=0;" parent="1" source="nWFLq_mtjB2sc_mupm8x-5" target="nWFLq_mtjB2sc_mupm8x-8" edge="1">
          <mxGeometry width="50" height="50" relative="1" as="geometry">
            <mxPoint x="175" y="239.71" as="sourcePoint" />
            <mxPoint x="255" y="239.71" as="targetPoint" />
          </mxGeometry>
        </mxCell>
        <mxCell id="nWFLq_mtjB2sc_mupm8x-14" value="" style="shape=cylinder3;whiteSpace=wrap;html=1;boundedLbl=1;backgroundOutline=1;size=15;" parent="1" vertex="1">
          <mxGeometry x="440" y="200" width="60" height="80" as="geometry" />
        </mxCell>
        <mxCell id="nWFLq_mtjB2sc_mupm8x-19" value="&lt;font face=&quot;Times New Roman&quot;&gt;Limpeza/Filtro&lt;/font&gt;" style="text;strokeColor=none;align=center;fillColor=none;html=1;verticalAlign=middle;whiteSpace=wrap;rounded=0;" parent="1" vertex="1">
          <mxGeometry x="340" y="220" width="100" height="10" as="geometry" />
        </mxCell>
        <mxCell id="nWFLq_mtjB2sc_mupm8x-22" value="" style="shape=cylinder3;whiteSpace=wrap;html=1;boundedLbl=1;backgroundOutline=1;size=15;" parent="1" vertex="1">
          <mxGeometry x="650" y="290" width="60" height="80" as="geometry" />
        </mxCell>
        <mxCell id="nWFLq_mtjB2sc_mupm8x-23" value="" style="shape=cylinder3;whiteSpace=wrap;html=1;boundedLbl=1;backgroundOutline=1;size=15;" parent="1" vertex="1">
          <mxGeometry x="650" y="110" width="60" height="80" as="geometry" />
        </mxCell>
        <mxCell id="nWFLq_mtjB2sc_mupm8x-24" value="" style="edgeStyle=orthogonalEdgeStyle;rounded=0;orthogonalLoop=1;jettySize=auto;html=1;entryX=0;entryY=0.5;entryDx=0;entryDy=0;entryPerimeter=0;exitX=1;exitY=0.5;exitDx=0;exitDy=0;exitPerimeter=0;" parent="1" source="nWFLq_mtjB2sc_mupm8x-14" target="nWFLq_mtjB2sc_mupm8x-23" edge="1">
          <mxGeometry relative="1" as="geometry">
            <mxPoint x="530" y="250" as="sourcePoint" />
            <mxPoint x="600" y="239.71" as="targetPoint" />
            <Array as="points">
              <mxPoint x="600" y="240" />
              <mxPoint x="600" y="150" />
            </Array>
          </mxGeometry>
        </mxCell>
        <mxCell id="nWFLq_mtjB2sc_mupm8x-27" value="" style="edgeStyle=orthogonalEdgeStyle;rounded=0;orthogonalLoop=1;jettySize=auto;html=1;entryX=0;entryY=0.5;entryDx=0;entryDy=0;entryPerimeter=0;exitX=1;exitY=0;exitDx=0;exitDy=52.5;exitPerimeter=0;" parent="1" source="nWFLq_mtjB2sc_mupm8x-14" target="nWFLq_mtjB2sc_mupm8x-22" edge="1">
          <mxGeometry relative="1" as="geometry">
            <mxPoint x="460" y="310" as="sourcePoint" />
            <mxPoint x="560" y="310" as="targetPoint" />
            <Array as="points">
              <mxPoint x="600" y="252" />
              <mxPoint x="600" y="330" />
            </Array>
          </mxGeometry>
        </mxCell>
        <mxCell id="nWFLq_mtjB2sc_mupm8x-28" value="&lt;font face=&quot;Times New Roman&quot;&gt;Criação do Conjunto de Dados posts&lt;/font&gt;" style="text;strokeColor=none;align=center;fillColor=none;html=1;verticalAlign=middle;whiteSpace=wrap;rounded=0;rotation=0;" parent="1" vertex="1">
          <mxGeometry x="500" y="210" width="100" height="10" as="geometry" />
        </mxCell>
        <mxCell id="nWFLq_mtjB2sc_mupm8x-29" value="&lt;font face=&quot;Times New Roman&quot;&gt;Criação do Conjunto de Dados likes&lt;/font&gt;" style="text;strokeColor=none;align=center;fillColor=none;html=1;verticalAlign=middle;whiteSpace=wrap;rounded=0;rotation=0;" parent="1" vertex="1">
          <mxGeometry x="500" y="270" width="100" height="10" as="geometry" />
        </mxCell>
      </root>
    </mxGraphModel>
  </diagram>
</mxfile>
